# xmcd
#
# Track frame offsets: 
#        150
#        24994
#        49240
#        127338
#        158020
#        178312
#        216165
#
# Disc length: 3297 seconds
#
# Revision: 0
# Processed by: cddbd v1.5.2PL0 Copyright (c) Steve Scherf et al.
# Submitted via: ExactAudioCopyFreeDBPlugin 1.0
#
DISCID=630cdf07
DTITLE=Eric Clapton - Live in San Diego (with Special Guest JJ Cale) C
DTITLE=D 2
DYEAR=2016
DGENRE=Blues-Rock
TTITLE0=Cocaine (with JJ Cale) - Eric Clapton
TTITLE1=Motherless Children - Eric Clapton
TTITLE2=Little Queen of Spades - Eric Clapton
TTITLE3=Further On Up the Road - Eric Clapton
TTITLE4=Wonderful Tonight - Eric Clapton
TTITLE5=Layla - Eric Clapton
TTITLE6=Crossroads - Eric Clapton
EXTD=
EXTT0=
EXTT1=
EXTT2=
EXTT3=
EXTT4=
EXTT5=
EXTT6=
PLAYORDER=
